
      <svg data-logo="logo" xmlns="http://www.w3.org/2000/svg" viewBox="0 0 253 42">
        <g id="logogram" transform="translate(0, 1) rotate(0) "><path d="M33.724 36.5809C37.7426 32.5622 40.0003 27.1118 40.0003 21.4286C40.0003 15.7454 37.7426 10.2949 33.724 6.27629C29.7054 2.25765 24.2549 1.02188e-06 18.5717 0C12.8885 -1.02188e-06 7.43807 2.25764 3.41943 6.27628L10.4905 13.3473C11.6063 14.4631 13.4081 14.4074 14.8276 13.7181C15.9836 13.1568 17.2622 12.8571 18.5717 12.8571C20.845 12.8571 23.0252 13.7602 24.6326 15.3677C26.2401 16.9751 27.1431 19.1553 27.1431 21.4286C27.1431 22.7381 26.8435 24.0167 26.2822 25.1727C25.5929 26.5922 25.5372 28.394 26.6529 29.5098L33.724 36.5809Z" fill="#297AFF"/><path d="M30 40H19.5098C17.9943 40 16.5408 39.398 15.4692 38.3263L1.67368 24.5308C0.60204 23.4592 0 22.0057 0 20.4902V10L30 40Z" fill="#34C2FF"/><path d="M10.7143 39.9999H4.28571C1.91878 39.9999 0 38.0812 0 35.7142V29.2856L10.7143 39.9999Z" fill="#34C2FF"/></g>
        <g id="logotype" transform="translate(46, 8)"><path fill="#036fe2" d="M8.17 26L8.17 1.43L14.09 1.43L14.09 26L8.17 26ZM23.47 26L23.47 1.43L29.38 1.43L29.38 26L23.47 26ZM13.39 15.85L13.39 11.09L24.34 11.09L24.34 15.85L13.39 15.85ZM42.02 26.25L42.02 26.25Q39.88 26.25 37.94 25.58Q35.99 24.91 34.51 23.64Q33.02 22.36 32.16 20.54Q31.30 18.72 31.30 16.38L31.30 16.38Q31.30 14.13 32.13 12.28Q32.95 10.42 34.37 9.06Q35.78 7.69 37.66 6.96Q39.53 6.22 41.63 6.22L41.63 6.22Q43.34 6.22 44.90 6.68Q46.46 7.13 47.70 8.01Q48.95 8.88 49.66 10.07Q50.38 11.26 50.38 12.73L50.38 12.73Q50.38 14.59 49.33 15.81Q48.28 17.04 46.58 17.74Q44.89 18.44 42.87 18.74Q40.86 19.04 38.90 19L38.90 19Q38.66 19 38.32 18.98Q37.99 18.96 37.71 18.95Q37.43 18.93 37.29 18.93L37.29 18.93Q37.50 19.73 38.18 20.38Q38.87 21.03 39.91 21.41Q40.97 21.80 42.09 21.80L42.09 21.80Q43.20 21.80 44.24 21.41Q45.27 21.03 46.11 20.43Q46.95 19.84 47.55 19.11L47.55 19.11L51.33 22.08Q50.28 23.48 48.77 24.41Q47.27 25.34 45.53 25.79Q43.80 26.25 42.02 26.25ZM38.94 15.11L38.94 15.11Q39.88 15.11 40.89 15.01Q41.91 14.90 42.77 14.64Q43.63 14.38 44.17 13.91Q44.71 13.43 44.71 12.70L44.71 12.70Q44.71 12.10 44.29 11.65Q43.87 11.19 43.17 10.95Q42.47 10.70 41.66 10.70L41.66 10.70Q40.27 10.70 39.22 11.37Q38.16 12.03 37.61 13.03Q37.05 14.03 36.98 15.04L36.98 15.04Q37.29 15.08 37.83 15.10Q38.38 15.11 38.94 15.11ZM60.14 26.25L60.14 26.25Q57.59 26.25 55.68 24.91Q53.77 23.59 52.74 21.33Q51.71 19.07 51.71 16.23L51.71 16.23Q51.71 13.43 52.74 11.16Q53.77 8.88 55.68 7.55Q57.59 6.22 60.14 6.22L60.14 6.22Q62.38 6.22 64.05 7.43Q65.71 8.64 66.38 10.81L66.38 10.81L66.38 6.47L72.29 6.47L72.29 26L69.38 26Q67.98 26 67.18 25.21Q66.38 24.43 66.38 23.02L66.38 23.02L66.38 21.70Q65.71 23.83 64.05 25.04Q62.38 26.25 60.14 26.25ZM62.07 21.06L62.07 21.06Q63.22 21.06 64.20 20.50Q65.19 19.95 65.78 18.86Q66.38 17.77 66.38 16.23L66.38 16.23Q66.38 14.73 65.78 13.64Q65.19 12.56 64.20 11.96Q63.22 11.37 62.07 11.37L62.07 11.37Q60.88 11.37 59.90 11.96Q58.92 12.56 58.34 13.64Q57.77 14.73 57.77 16.23L57.77 16.23Q57.77 17.77 58.34 18.86Q58.92 19.95 59.92 20.50Q60.91 21.06 62.07 21.06ZM75.44 19.95L75.44 19.95L75.44 0.10L81.36 0.10L81.36 19.66Q81.36 20.43 81.83 20.82Q82.30 21.20 82.93 21.20L82.93 21.20Q83.35 21.20 83.74 21.06L83.74 21.06L84.68 25.61Q83.28 26.25 81.53 26.25L81.53 26.25Q80.06 26.25 78.66 25.65Q77.26 25.05 76.35 23.67Q75.44 22.29 75.44 19.95ZM93.78 26.25L93.78 26.25Q90.56 26.25 88.85 24.48Q87.13 22.71 87.13 19.35L87.13 19.35L87.13 11.26L84.02 11.26L84.02 6.47L96.93 6.47L96.93 11.26L93.05 11.26L93.05 19.42Q93.05 20.26 93.59 20.73Q94.13 21.20 94.90 21.20L94.90 21.20Q95.25 21.20 95.55 21.12Q95.85 21.03 96.13 20.86L96.13 20.86L97.60 25.20Q96.76 25.65 95.83 25.95Q94.90 26.25 93.78 26.25ZM90.84 6.47L85.56 8.04L85.56 6.47Q86.33 6.47 86.82 5.98Q87.31 5.49 87.31 4.72L87.31 4.72L87.31 1.71L93.05 1.71L93.05 3.81Q93.05 4.30 92.80 4.88Q92.56 5.45 92.05 5.89Q91.54 6.33 90.84 6.47L90.84 6.47ZM105.61 26L99.70 26L99.70 0.10L105.61 0.10L105.61 10.63Q106.03 9.27 106.98 8.29Q107.92 7.31 109.16 6.77Q110.41 6.22 111.74 6.22L111.74 6.22Q113.98 6.22 115.62 7.24Q117.27 8.25 118.18 10.11Q119.09 11.96 119.09 14.52L119.09 14.52L119.09 26L113.17 26L113.17 15.50Q113.17 13.50 112.16 12.37Q111.14 11.23 109.43 11.23L109.43 11.23Q108.27 11.23 107.41 11.82Q106.56 12.42 106.08 13.47Q105.61 14.52 105.61 15.85L105.61 15.85L105.61 26ZM122.06 26L122.06 1.43L129.03 1.43L137.15 21.38L134.73 21.73L142.89 1.43L149.82 1.43L149.82 26L143.90 26L143.90 5.66L145.86 5.98L138.34 26L133.58 26L126.05 5.98L127.98 5.66L127.98 26L122.06 26ZM162.45 26.25L162.45 26.25Q160.32 26.25 158.37 25.58Q156.43 24.91 154.94 23.64Q153.46 22.36 152.60 20.54Q151.74 18.72 151.74 16.38L151.74 16.38Q151.74 14.13 152.56 12.28Q153.39 10.42 154.80 9.06Q156.22 7.69 158.09 6.96Q159.97 6.22 162.07 6.22L162.07 6.22Q163.78 6.22 165.34 6.68Q166.90 7.13 168.14 8.01Q169.38 8.88 170.10 10.07Q170.82 11.26 170.82 12.73L170.82 12.73Q170.82 14.59 169.77 15.81Q168.72 17.04 167.02 17.74Q165.32 18.44 163.31 18.74Q161.30 19.04 159.34 19L159.34 19Q159.09 19 158.76 18.98Q158.43 18.96 158.15 18.95Q157.87 18.93 157.73 18.93L157.73 18.93Q157.94 19.73 158.62 20.38Q159.30 21.03 160.35 21.41Q161.40 21.80 162.52 21.80L162.52 21.80Q163.64 21.80 164.67 21.41Q165.71 21.03 166.55 20.43Q167.39 19.84 167.98 19.11L167.98 19.11L171.76 22.08Q170.71 23.48 169.21 24.41Q167.70 25.34 165.97 25.79Q164.24 26.25 162.45 26.25ZM159.37 15.11L159.37 15.11Q160.32 15.11 161.33 15.01Q162.35 14.90 163.20 14.64Q164.06 14.38 164.60 13.91Q165.15 13.43 165.15 12.70L165.15 12.70Q165.15 12.10 164.73 11.65Q164.31 11.19 163.61 10.95Q162.91 10.70 162.10 10.70L162.10 10.70Q160.70 10.70 159.65 11.37Q158.60 12.03 158.04 13.03Q157.48 14.03 157.41 15.04L157.41 15.04Q157.73 15.08 158.27 15.10Q158.81 15.11 159.37 15.11ZM182.86 26.25L182.86 26.25Q180.72 26.25 178.78 25.58Q176.84 24.91 175.35 23.64Q173.86 22.36 173.00 20.54Q172.15 18.72 172.15 16.38L172.15 16.38Q172.15 14.13 172.97 12.28Q173.79 10.42 175.21 9.06Q176.63 7.69 178.50 6.96Q180.37 6.22 182.47 6.22L182.47 6.22Q184.19 6.22 185.74 6.68Q187.30 7.13 188.54 8.01Q189.79 8.88 190.50 10.07Q191.22 11.26 191.22 12.73L191.22 12.73Q191.22 14.59 190.17 15.81Q189.12 17.04 187.42 17.74Q185.73 18.44 183.71 18.74Q181.70 19.04 179.74 19L179.74 19Q179.50 19 179.16 18.98Q178.83 18.96 178.55 18.95Q178.27 18.93 178.13 18.93L178.13 18.93Q178.34 19.73 179.02 20.38Q179.71 21.03 180.76 21.41Q181.81 21.80 182.93 21.80L182.93 21.80Q184.05 21.80 185.08 21.41Q186.11 21.03 186.95 20.43Q187.79 19.84 188.39 19.11L188.39 19.11L192.17 22.08Q191.12 23.48 189.61 24.41Q188.11 25.34 186.37 25.79Q184.64 26.25 182.86 26.25ZM179.78 15.11L179.78 15.11Q180.72 15.11 181.74 15.01Q182.75 14.90 183.61 14.64Q184.47 14.38 185.01 13.91Q185.55 13.43 185.55 12.70L185.55 12.70Q185.55 12.10 185.13 11.65Q184.71 11.19 184.01 10.95Q183.31 10.70 182.51 10.70L182.51 10.70Q181.11 10.70 180.06 11.37Q179.01 12.03 178.45 13.03Q177.89 14.03 177.82 15.04L177.82 15.04Q178.13 15.08 178.67 15.10Q179.22 15.11 179.78 15.11ZM202.07 26.25L202.07 26.25Q198.85 26.25 197.14 24.48Q195.42 22.71 195.42 19.35L195.42 19.35L195.42 11.26L192.31 11.26L192.31 6.47L205.22 6.47L205.22 11.26L201.34 11.26L201.34 19.42Q201.34 20.26 201.88 20.73Q202.42 21.20 203.19 21.20L203.19 21.20Q203.54 21.20 203.84 21.12Q204.14 21.03 204.42 20.86L204.42 20.86L205.89 25.20Q205.05 25.65 204.12 25.95Q203.19 26.25 202.07 26.25ZM199.13 6.47L193.85 8.04L193.85 6.47Q194.62 6.47 195.11 5.98Q195.60 5.49 195.60 4.72L195.60 4.72L195.60 1.71L201.34 1.71L201.34 3.81Q201.34 4.30 201.09 4.88Q200.85 5.45 200.34 5.89Q199.83 6.33 199.13 6.47L199.13 6.47Z"/></g>
        
      </svg>
    